<?xml version="1.0" encoding="UTF-8"?>
<svg width="379px" height="548px" viewBox="0 0 379 548" version="1.1" xmlns="http://www.w3.org/2000/svg" xmlns:xlink="http://www.w3.org/1999/xlink">
    <!-- Generator: Sketch 46.2 (44496) - http://www.bohemiancoding.com/sketch -->
    <title>Untitled 2</title>
    <desc>Created with Sketch.</desc>
    <defs></defs>
    <g id="Page-1" stroke="none" stroke-width="1" fill="none" fill-rule="evenodd">
        <g id="bus_pointer" fill-rule="nonzero">
            <path d="M90.57,28.61 C120.63,10.38 155.8,0.52 190.99,0.99 C231.42,1.09 271.56,14.88 303.87,39.11 C314.19,46.65 323.41,55.55 332.08,64.91 C356.69,92.32 373.03,127.3 377.1,164.01 C378.17,174.45 378.88,185.05 377.23,195.47 C374.78,212.03 369.62,228.05 363.93,243.75 C362.23,248.08 360.84,252.57 358.58,256.65 C315.04,331.8 271.55,406.97 227.98,482.09 C215.41,503.93 202.59,525.64 190.14,547.54 C189.8,547.61 189.11,547.74 188.77,547.81 C183.35,537.54 177.18,527.67 171.47,517.56 C121.55,431.4 71.71,345.2 21.85,259 C17.79,252.49 15.75,245.02 13.05,237.9 C7.48,221.69 2.32,205.11 0.85,187.96 C-0.3,155.96 8.25,123.85 24.19,96.15 C40.1,68.48 63.25,45.09 90.57,28.61 Z" id="Shape" fill="#F47A22"></path>
            <path d="M107.75,60.82 C126.63,51.64 147.33,46.63 168.18,44.74 C201.46,41.92 235.96,44.78 266.89,58.08 C274.8,61.49 283.06,65.55 287.88,73.03 C291.93,79.58 293.18,87.38 294.13,94.89 C296.21,113.96 298.2,133.04 300.22,152.12 C300.75,158.4 301.86,164.65 301.87,170.97 C301.86,204.64 301.87,238.32 301.87,271.99 C295.36,272.01 288.85,272 282.34,272 C282.04,278.33 282.88,284.67 282.39,290.99 C281.47,299.06 273.03,304.9 265.14,303.6 C258.39,302.82 252.5,296.89 252.35,290 C252.17,284.04 252.31,278.07 252.3,272.11 C210.98,271.86 169.65,272.06 128.32,272.01 C128.32,277.68 128.33,283.35 128.34,289.02 C128.56,295.62 123.53,301.71 117.18,303.23 C109.02,305.63 99.2,299.87 98.32,291.19 C98.15,284.79 98.24,278.39 98.32,272 C91.76,271.97 85.19,272.07 78.63,271.93 C78.7,237.61 78.59,203.29 78.68,168.98 C81.15,143.94 83.9,118.93 86.58,93.91 C87.69,85.54 89.32,76.63 94.96,69.99 C98.41,65.95 103.04,63.17 107.75,60.82 L107.75,60.82 Z" id="Shape" fill="#FFFEFE"></path>
            <path d="M142.37,63.48 C143.58,63.28 144.81,63.19 146.04,63.22 C176.38,63.29 206.71,63.21 237.05,63.26 C240.63,63.16 244.13,66.29 243.79,70 C244.09,74.1 239.84,76.99 236.06,76.75 C205.72,76.75 175.37,76.78 145.02,76.73 C141.25,76.91 137.11,74.02 137.32,69.96 C137.08,66.92 139.58,64.28 142.37,63.48 L142.37,63.48 Z M111.35,92.41 C112.87,91.87 114.48,91.76 116.08,91.74 C165.72,91.77 215.35,91.75 264.99,91.75 C270.18,91.47 275.6,95.1 276.34,100.43 C278.64,117.91 280.77,135.43 281.91,153.02 C282.24,156.96 283.34,161.16 281.57,164.92 C279.9,168.52 275.84,170.45 271.98,170.25 C217.66,170.25 163.33,170.25 109.01,170.24 C104.18,170.41 99.25,166.97 98.55,162.04 C98.12,157.33 99.31,152.68 99.37,147.98 C100.7,131.99 102.48,116.04 104.52,100.12 C104.83,96.4 107.94,93.5 111.35,92.41 L111.35,92.41 Z M109.37,209.44 C117.75,206.93 127.56,213.05 128.29,221.92 C129.46,230.13 122.29,237.91 114.14,238.02 C106.58,238.59 98.98,232.77 98.3,225.09 C97.32,217.99 102.53,211.09 109.37,209.44 L109.37,209.44 Z M263.35,209.43 C271.43,207.12 281.03,212.5 282.25,221.06 C283.91,229.19 277.22,237.35 269.09,237.95 C260.91,239.22 252.3,232.44 252.43,224 C251.89,217.33 256.92,210.96 263.35,209.43 L263.35,209.43 Z" id="Shape" fill="#F47A22"></path>
        </g>
    </g>
</svg>